<svg xmlns="http://www.w3.org/2000/svg" width="2179.025" height="596" viewBox="0 0 2179.0251 596.00049"><path d="M247.493 367.765c-.265-.696-.366-83.615-.224-184.265l.256-183h63l.5 85.717.5 85.716 71.837-85.966L455.199 0h33.806c38.69 0 37.884-.2 31.308 7.824-2.06 2.515-34.934 41.9-73.052 87.522-69.075 82.672-69.3 82.957-67.424 85.052 3.066 3.423 149.731 182.996 150.495 184.262.385.638.425 1.876.09 2.75-.543 1.414-4.612 1.586-36.754 1.548l-36.143-.043-73-90.012-73-90.013-.5 89.805-.5 89.805-31.276.265c-24.483.207-31.38-.01-31.756-1zM559.025 304v-63H579.216l-.346 49c-.19 26.95-.306 49-.258 49 .048 0 14.223-22.047 31.5-48.994l31.413-48.995 12.75-.005 12.75-.006v126h-20.213l.357-49.29.356-49.292-11.538 18.041c-6.346 9.923-20.52 32.1-31.5 49.282l-19.962 31.241-12.75.01-12.75.008v-63zm140 0v-63h19.088l-.294 49.42-.294 49.42 6.193-9.67c3.405-5.318 17.6-27.445 31.542-49.17l25.35-39.5 12.708-.28 12.707-.28V367h-20.26l.578-47.25c.318-25.987.88-48.6 1.25-50.25.37-1.65-13.817 19.613-31.526 47.25L723.869 367h-24.844v-63zm185 .03V241h20l-.1 33.25c-.054 18.288-.405 40.45-.778 49.25-.374 8.8-.65 16.092-.615 16.203.036.111 14.267-21.939 31.625-49l31.56-49.203 12.654-.28 12.654-.28V367h-20l.064-34.75c.035-19.112.424-41.275.864-49.25.44-7.975.701-14.623.58-14.773-.122-.15-14.394 21.9-31.715 49L909.324 366.5l-12.65.28-12.649.28v-63.03zm139-.03v-63h22v51h57v-51h21v126h-21v-56h-57v56h-22v-63zm116.167 62.108c.183-.491 10.683-14.925 23.333-32.074 12.65-17.15 22.948-31.76 22.885-32.465-.063-.706-9.771-14.06-21.573-29.676-11.801-15.616-21.788-28.955-22.193-29.643-.573-.972 1.887-1.237 11.072-1.194l11.81.055 21.5 29.51 21.5 29.51.264-29.566.265-29.565h19.94l.265 29.25.265 29.25 21.461-29.25 21.462-29.25h11.91c9.393 0 11.702.265 10.92 1.25-8.627 10.864-44.692 59.403-44.523 59.923.127.39 9.132 12.772 20.011 27.518 10.88 14.745 21.502 29.172 23.605 32.06l3.824 5.25-12.335-.056-12.335-.055-22-30.65-22-30.65-.264 30.705-.265 30.705h-19.942l-.265-31.018-.264-31.018-22.343 31.018L1162.84 367h-11.99c-6.616 0-11.841-.4-11.657-.892zM1312.025 304v-63H1332.16l-.318 49.398-.317 49.398 4-6.331c2.2-3.482 16.375-25.69 31.5-49.351l27.5-43.021 12.75-.046 12.75-.047v126h-20l.1-39.75c.055-21.862.418-44.25.807-49.75.388-5.5.68-10.074.65-10.165-.031-.09-14.401 22.297-31.933 49.75L1337.773 367h-25.748v-63zm140 0v-63h21v51h57v-51h22v126h-22v-56h-57v56h-21v-63zm132 0v-63h20.236l-.392 48.902-.393 48.902 3.088-4.652c1.698-2.558 15.844-24.564 31.435-48.902l28.348-44.25H1692.025v126h-20.163l.332-49.45.331-49.45-6 9.366c-3.3 5.15-17.475 27.387-31.5 49.415l-25.5 40.05-12.75.035-12.75.034v-63zm139 0v-63l24.75.015c18.299.011 26.384.4 31.02 1.493 16.688 3.935 25.98 13.63 28.224 29.447 2.032 14.327-1.963 28.076-10.424 35.874-9.41 8.674-20.719 12.126-39.82 12.154l-11.75.017v47h-22v-63zm48.986-4.414c8.897-3.298 13.014-9.464 13.014-19.488 0-9.613-2.672-14.29-10.5-18.383-3.273-1.712-6.316-2.17-16.75-2.521l-12.75-.43v43.488l11.25-.502c6.841-.305 13.008-1.153 15.736-2.164zm60.014 4.444V241h20l-.096 32.25c-.053 17.738-.415 39.9-.805 49.25-.39 9.35-.67 17.09-.623 17.198.048.109 14.285-21.941 31.639-49l31.552-49.198 12.667-.28 12.666-.28V367h-20l.06-35.25c.031-19.387.423-41.55.87-49.25.447-7.7.705-14.127.575-14.283-.131-.156-14.407 21.894-31.726 49l-31.488 49.283-12.645.28-12.645.28v-63.03zm139-.03v-63h22v51h57v-51h21v126h-21v-56h-57v56h-22v-63zm132 0v-63h76v18h-54v108h-22v-63zM742.801 231c-16.05-1.98-23.95-9.616-26.128-25.25l-.522-3.75h9.937c9.632 0 9.938.07 9.96 2.25.011 1.238.897 4.18 1.967 6.538 2.376 5.236 6.445 7.222 14.728 7.19 8.383-.031 13.833-2.772 16.294-8.194 1.07-2.356 1.954-5.071 1.966-6.034.02-1.549 1.177-1.75 10.102-1.75h10.08l-.663 3.25c-2.216 10.888-5.566 16.789-11.651 20.521-7.48 4.588-23.016 6.84-36.07 5.23z" fill="#fefefe"/><path d="M270.148 593.75c-.455-1.237-5.251-21.707-10.658-45.488-5.408-23.78-10.087-43.6-10.398-44.044-.312-.443-13.971-6.77-30.355-14.059l-29.788-13.252-14.712 9.918A26843.772 26843.772 0 0 0 135.525 513c-13.2 8.941-24.726 16.46-25.614 16.71-2.144.601-52.148-51.53-51.574-53.768.22-.857 13.1-17.852 28.62-37.766l28.22-36.208-11.739-28.734c-6.456-15.803-12.003-29.036-12.326-29.405-.323-.369-19.262-5.456-42.087-11.305-22.825-5.85-43.193-11.078-45.262-11.621L0 319.917l.263-35.67.262-35.669 43.953-7.325c24.174-4.028 44.099-7.47 44.277-7.65.646-.645 24.27-59.04 24.27-59.99 0-.536-9.75-17.611-21.667-37.944C79.44 115.336 69.51 97.755 69.293 96.6c-.402-2.119-.55-1.989 43.884-38.388l7.677-6.288 36.335 23.158 36.336 23.159 11.292-5.711c6.211-3.141 11.948-5.46 12.75-5.152 1.225.47 1.458 4.683 1.458 26.384v25.825l-8.25 5.957c-11.25 8.123-32.802 29.903-41.02 41.456-7.698 10.822-19.306 33.653-23.133 45.5-14.072 43.56-10.18 91.46 10.835 133.365 23.53 46.916 63.2 77.982 112.104 87.788 12.44 2.495 42.243 2.485 54.964-.017 20.583-4.048 37.187-9.83 56.481-19.667 19.493-9.938 47.18-29.26 61.054-42.606 2.493-2.4 5.263-4.363 6.154-4.363s18.876 16.268 39.966 36.15c51.767 48.803 52.978 49.983 52.64 51.266-.162.616-8.845 12.924-19.295 27.35-12.558 17.336-19.508 26.11-20.5 25.88-.825-.192-19.029-11.695-40.453-25.562l-38.953-25.212-29.547 11.678c-16.25 6.424-29.879 11.982-30.285 12.353-.556.508-19.762 92.516-19.762 94.673 0 .233-15.986.424-35.525.424h-35.524l-.828-2.25z" fill="#a2a2a2"/></svg>