<?xml version="1.0" encoding="UTF-8" standalone="no"?>
<!-- Created with Inkscape (http://www.inkscape.org/) -->

<svg
   xmlns="http://www.w3.org/2000/svg"
   id="svg2"
   version="1.1"
   inkscape:version="0.91 r13725"
   viewBox="0 0 195.68086 58.872799"
   sodipodi:docname="logo-footer.svg">
  <metadata
     id="metadata8">
    <rdf:RDF>
      <cc:Work
         rdf:about="">
        <dc:format>image/svg+xml</dc:format>
        <dc:type
           rdf:resource="http://purl.org/dc/dcmitype/StillImage" />
        <dc:title></dc:title>
      </cc:Work>
    </rdf:RDF>
  </metadata>
  <defs
     id="defs6" />
  <sodipodi:namedview
     pagecolor="#ffffff"
     bordercolor="#666666"
     borderopacity="1"
     objecttolerance="10"
     gridtolerance="10"
     guidetolerance="10"
     inkscape:pageopacity="0"
     inkscape:pageshadow="2"
     inkscape:window-width="1662"
     inkscape:window-height="827"
     id="namedview4"
     showgrid="false"
     inkscape:zoom="3.6836735"
     inkscape:cx="113.75872"
     inkscape:cy="51.403423"
     inkscape:window-x="0"
     inkscape:window-y="0"
     inkscape:window-maximized="0"
     inkscape:current-layer="g4182"
     fit-margin-top="0"
     fit-margin-left="0"
     fit-margin-right="0"
     fit-margin-bottom="0" />
  <g
     id="g4182"
     transform="translate(-0.54293712,-1.5761145)">
    <g
       id="g4199"
       transform="translate(0.5429363,-2.6942431e-7)">
      <path
         style="fill:#fefefe"
         d="m 26.171054,37.665659 c -1.018109,-0.645438 -1.328948,-4.727534 -1.328948,-17.452439 0,-9.135469 0.287084,-17.0744548 0.637965,-17.6421912 0.86436,-1.3985639 3.847687,-1.3044914 5.31993,0.167752 0.663007,0.6630068 1.209899,3.9073408 1.222122,7.25 l 0.02212,6.0500002 7.011039,-7.2500002 c 7.117999,-7.3606054 8.599774,-8.19494483 10.744719,-6.05 2.215818,2.2158177 1.233048,4.329904 -4.778026,10.2782552 l -5.978026,5.915648 6.978026,7.196469 c 3.837914,3.958058 6.978026,7.903597 6.978026,8.767865 0,1.420199 -2.794251,3.641763 -4.580557,3.641763 -0.391622,0 -4.232571,-3.7125 -8.535443,-8.25 l -7.823404,-8.25 -0.0303,7.05 c -0.03624,8.433598 -1.864282,11.109516 -5.859245,8.576878 z m 28.828947,-5.126878 c 0,-3.333333 0.444444,-6 1,-6 0.55,0 1,1.649974 1,3.66661 l 0,3.66661 3.458373,-3.91661 c 1.902106,-2.154136 3.511721,-3.35411 3.576924,-2.66661 0.132051,1.392365 0.161397,8.660101 0.04163,10.309017 -0.164509,2.264838 -2.079209,-0.328436 -2.117564,-2.868034 l -0.04064,-2.690983 -2.782186,3.25 c -1.530202,1.7875 -3.086913,3.25 -3.459359,3.25 -0.372446,0 -0.677174,-2.7 -0.677174,-6 z m 11.508269,4.864404 c -0.942603,-2.430025 -0.164429,-10.397299 0.991731,-10.153756 0.55,0.115856 1.225,1.574947 1.5,3.242425 l 0.5,3.031777 2.378902,-3.492425 c 1.308396,-1.920834 2.770896,-3.492425 3.25,-3.492425 1.216717,0 1.096302,10.742782 -0.128902,11.5 -0.583423,0.360575 -1,-0.656282 -1,-2.440983 0,-1.682459 -0.231343,-3.059017 -0.514096,-3.059017 -0.282753,0 -1.825643,1.4625 -3.428643,3.25 -2.416933,2.695113 -3.022868,2.970747 -3.548992,1.614404 z m 17.011367,0 c -0.952921,-2.413389 -0.181935,-10.398592 0.980364,-10.153756 0.55,0.115856 1.225,1.574947 1.5,3.242425 l 0.5,3.031777 2.368963,-3.477919 c 1.302929,-1.912856 2.765429,-3.232889 3.25,-2.933408 1.216345,0.751743 1.113862,10.164549 -0.118963,10.926477 -0.583423,0.360575 -1,-0.656282 -1,-2.440983 0,-3.875191 -0.693497,-3.842843 -4.09445,0.190983 -2.26541,2.686973 -2.851983,2.966651 -3.385914,1.614404 z m 12.147031,0.468929 c -1.054693,-1.054692 -0.774886,-10.148416 0.333333,-10.833333 0.55,-0.339919 1.05625,-0.141476 1.125,0.440983 0.06875,0.582459 0.18125,1.621517 0.25,2.309017 0.06875,0.6875 1.102698,1.389237 2.297663,1.559416 1.623556,0.231217 2.255386,-0.274251 2.499996,-2 0.60127,-4.242043 2.32734,-1.875747 2.32734,3.190584 0,4.92023 -1.68776,7.081436 -2.32734,2.980195 -0.4128,-2.647099 -4.366715,-2.346688 -4.757107,0.361436 -0.32454,2.25132 -0.869101,2.871487 -1.748885,1.991702 z M 106,37.348317 c 0,-0.860556 0.675,-2.124847 1.5,-2.809536 1.90661,-1.582346 1.91065,-3.4143 0.011,-4.990862 -0.81894,-0.679663 -1.22147,-1.668606 -0.8945,-2.19765 0.32938,-0.532954 1.6042,-0.01331 2.85876,1.165282 l 2.26428,2.127181 0.73622,-2.301975 c 0.61717,-1.929737 0.81179,-2.018994 1.20355,-0.551976 0.57544,2.154831 1.1795,2.187744 3.39266,0.184857 0.98941,-0.895403 1.98119,-1.157843 2.31773,-0.613307 0.32355,0.52351 -0.0818,1.507925 -0.90072,2.187588 -1.89964,1.576562 -1.8956,3.408516 0.011,4.990862 0.825,0.684689 1.5,1.94898 1.5,2.809536 0,1.128521 -0.83621,0.763504 -3,-1.309536 l -3,-2.874182 0,2.687091 C 114,37.32959 113.55,38.538781 113,38.538781 c -0.55,0 -1,-1.209191 -1,-2.687091 l 0,-2.687091 -3,2.874182 c -2.16379,2.07304 -3,2.438057 -3,1.309536 z m 15.51964,0.05487 C 120.56671,34.989796 121.3377,27.004593 122.5,27.249429 c 0.55,0.115856 1.225,1.574947 1.5,3.242425 l 0.5,3.031777 2.36896,-3.477919 c 1.30293,-1.912856 2.76543,-3.232889 3.25,-2.933408 1.17499,0.726185 1.13431,10.151911 -0.047,10.881981 -1.12795,0.697109 -2.45125,-3.032851 -1.57753,-4.446555 1.43218,-2.31731 -1.05531,-0.764037 -3.58892,2.241051 -2.26541,2.686973 -2.85198,2.966651 -3.38591,1.614404 z M 133.75,37.968053 c -1.07666,-1.094754 -0.92731,-10.201653 0.17851,-10.885086 0.51067,-0.315616 1.07317,0.445326 1.25,1.690983 0.45996,3.240305 4.54961,3.710549 4.99415,0.574247 0.60127,-4.242043 2.32734,-1.875747 2.32734,3.190584 0,4.884118 -1.68469,7.091784 -2.31955,3.039611 -0.50613,-3.230479 -4.95874,-2.768678 -5.36403,0.556328 -0.17403,1.427766 -0.65392,2.252766 -1.06642,1.833333 z m 10.98994,-0.02267 C 143.84957,37.055014 143.75708,30.335398 144.60478,28.12631 145.53899,25.691805 147,27.300962 147,30.764408 l 0,3.107593 3.45837,-3.91661 3.45838,-3.91661 0.0416,6.25 c 0.0235,3.527751 -0.39391,6.25 -0.95835,6.25 -0.55,0 -1,-1.35 -1,-3 0,-1.65 -0.23134,-3 -0.5141,-3 -0.28275,0 -1.74978,1.382972 -3.26006,3.07327 -1.51028,1.690299 -3.07894,2.740299 -3.4859,2.333334 z m 11.89954,-0.100457 C 156.28777,37.493214 156,35.016325 156,32.34073 c 0,-3.404922 0.45079,-5.037702 1.50224,-5.441181 2.24292,-0.860689 6.19335,0.403564 6.88387,2.203042 0.87171,2.271626 -1.11993,5.43619 -3.42129,5.43619 -1.08065,0 -1.96482,0.648442 -1.96482,1.440983 0,1.670644 -1.42728,2.798406 -2.36052,1.865164 z m 5.13135,-7.118645 c 0.21771,-0.653125 -0.31666,-1.1875 -1.1875,-1.1875 -0.87083,0 -1.58333,0.7125 -1.58333,1.583333 0,1.765927 2.15276,1.45839 2.77083,-0.395833 z M 166,33.097798 c 0,-2.992541 0.45,-5.719098 1,-6.059017 0.59898,-0.370192 1.00597,0.909448 1.01488,3.190983 l 0.0149,3.809017 3.40569,-4 c 3.91318,-4.596056 4.90884,-3.769171 4.37765,3.635596 -0.35478,4.94561 -2.05555,5.737849 -2.82175,1.314407 l -0.50866,-2.936605 -2.30943,3.243301 c -1.27022,1.783816 -2.72883,3.243301 -3.24137,3.243301 -0.51255,0 -0.93191,-2.448442 -0.93191,-5.440983 z m 11.92308,4.5 c -0.0423,-0.582459 -0.0769,-2.859017 -0.0769,-5.059017 0,-5.885529 0.0608,-6.175517 1.15385,-5.5 0.55,0.339919 1,1.522774 1,2.628568 0,2.94517 4.39015,2.144879 4.81955,-0.878568 0.6589,-4.639414 2.18045,-2.022613 2.18045,3.75 0,3.333333 -0.44444,6 -1,6 -0.55,0 -1,-1.125 -1,-2.5 0,-2 -0.5,-2.5 -2.5,-2.5 -1.808,0 -2.5,0.537268 -2.5,1.940983 0,2.011696 -1.94088,3.990992 -2.07692,2.118034 z m 11.50677,-0.381231 c -0.30581,-0.796938 -0.41514,-3.41296 -0.24294,-5.813382 0.26676,-3.718547 0.66312,-4.413929 2.67843,-4.699069 3.29323,-0.465951 5.35911,1.701703 2.36741,2.48405 C 192.41341,29.663933 192,30.480158 192,33.596395 c 0,3.944616 -1.58756,6.180764 -2.57015,3.620172 z M 69.701237,25.906684 c -1.274513,-1.274513 -0.731883,-1.86605 1.84856,-2.015173 1.521771,-0.08794 2.394513,0.314907 2.166428,1 -0.453418,1.361916 -3.019438,2.010723 -4.014988,1.015173 z"
         id="path4203"
         inkscape:connector-curvature="0" />
      <path
         style="fill:#a2a2a2"
         d="M 25.160967,56.263757 C 24.356922,53.070604 23.337234,51.557834 21.391282,50.671199 19.043074,49.601284 18.245918,49.772037 14.731559,52.09773 L 10.739338,54.739657 7.6564716,51.65679 4.5736053,48.573924 7.8717973,45.171053 C 11.095858,41.844668 11.134851,41.700233 9.6066616,38.74504 8.3945953,36.401162 7.1397126,35.569232 4.0216673,35.042442 0.05521265,34.372313 8.2332303e-7,34.303972 8.2332303e-7,30.064427 8.2332303e-7,25.767321 0.00145146,25.765651 4.2921246,25.122225 7.839994,24.590189 8.7742432,23.975228 9.6799501,21.575736 10.622996,19.077322 10.430589,18.165086 8.2989294,15.028066 6.936732,13.023413 5.9747106,11.305738 6.1611039,11.211011 6.3474972,11.116284 7.6762914,10.005343 9.1139799,8.7422518 l 2.6139791,-2.296529 3.644455,2.1502813 c 2.004451,1.1826546 4.31566,1.8927159 5.136021,1.5779139 2.464732,-0.9458064 1.971321,5.915421 -0.55252,7.683188 -2.708396,1.897035 -5.955914,8.399381 -5.955914,11.925236 0,3.565943 2.486325,9.580754 5.118588,12.38267 4.924825,5.242237 15.447911,5.133749 21.816321,-0.224914 l 3.025847,-2.546083 5.019131,4.322383 c 2.760522,2.377311 5.017117,4.547383 5.014655,4.822383 -0.0025,0.275 -1.014741,1.750008 -2.249509,3.277795 l -2.245033,2.777795 -3.827962,-2.616822 c -3.391223,-2.318265 -4.157011,-2.480526 -6.712033,-1.422202 -2.262822,0.937292 -3.059514,2.087356 -3.698543,5.339028 -0.782141,3.979889 -0.976905,4.156357 -4.906393,4.445475 -4.069673,0.299432 -4.097913,0.27727 -5.194103,-4.076093 z"
         id="path4201"
         inkscape:connector-curvature="0" />
    </g>
  </g>
</svg>
