<svg xmlns="http://www.w3.org/2000/svg" viewBox="0 0 197.24503 59.436515" width="197.245" height="59.437"><path d="M25.161 55.251c-.804-3.193-1.824-4.706-3.77-5.592-2.348-1.07-3.145-.9-6.66 1.426l-3.992 2.642-3.083-3.083-3.082-3.082 3.298-3.403c3.224-3.327 3.263-3.471 1.735-6.426-1.212-2.344-2.467-3.176-5.585-3.703C.055 33.36 0 33.292 0 29.052c0-4.297.001-4.299 4.292-4.942 3.548-.532 4.482-1.147 5.388-3.547.943-2.498.75-3.41-1.381-6.547-1.362-2.005-2.324-3.723-2.138-3.817.186-.095 1.515-1.206 2.953-2.47l2.614-2.296 3.644 2.15c2.005 1.183 4.316 1.893 5.136 1.579 2.465-.946 1.972 5.915-.552 7.683C17.248 18.742 14 25.245 14 28.77c0 3.566 2.486 9.58 5.119 12.383 4.924 5.242 15.447 5.133 21.816-.225l3.026-2.546 5.019 4.322c2.76 2.377 5.017 4.547 5.015 4.822-.003.275-1.015 1.75-2.25 3.278L49.5 53.582l-3.828-2.617c-3.391-2.318-4.157-2.48-6.712-1.422-2.263.937-3.06 2.087-3.699 5.339-.782 3.98-.976 4.156-4.906 4.445-4.07.3-4.098.278-5.194-4.076z" fill="#fed26c"/><text y="9.167" x="21.535" style="line-height:125%" font-weight="400" font-size="40" font-family="Sans" letter-spacing="0" word-spacing="0" transform="translate(0 26.526)"><tspan style="line-height:125%;-inkscape-font-specification:'Open Sans Semibold, Semi-Bold'" y="9.167" x="21.535" font-weight="600" font-size="17.5" font-family="Open Sans Semibold" letter-spacing=".1" fill="#fff"><tspan style="line-height:125%" font-size="50">К</tspan>ий инжиниринг</tspan></text></svg>