<?xml version="1.0" encoding="UTF-8" standalone="no"?>
<!-- Created with Inkscape (http://www.inkscape.org/) -->

<svg
   id="svg2"
   version="1.1"
   inkscape:version="0.91 r13725"
   viewBox="0 0 195.68086 58.997974"
   sodipodi:docname="logo.svg">
  <metadata
     id="metadata8">
    <rdf:RDF>
      <cc:Work
         rdf:about="">
        <dc:format>image/svg+xml</dc:format>
        <dc:type
           rdf:resource="http://purl.org/dc/dcmitype/StillImage" />
        <dc:title></dc:title>
      </cc:Work>
    </rdf:RDF>
  </metadata>
  <defs
     id="defs6" />
  <sodipodi:namedview
     pagecolor="#ffffff"
     bordercolor="#666666"
     borderopacity="1"
     objecttolerance="10"
     gridtolerance="10"
     guidetolerance="10"
     inkscape:pageopacity="0"
     inkscape:pageshadow="2"
     inkscape:window-width="1662"
     inkscape:window-height="827"
     id="namedview4"
     showgrid="false"
     fit-margin-top="0"
     fit-margin-left="0"
     fit-margin-right="0"
     fit-margin-bottom="0"
     inkscape:zoom="3.6836735"
     inkscape:cx="124.76266"
     inkscape:cy="72.720925"
     inkscape:window-x="0"
     inkscape:window-y="0"
     inkscape:window-maximized="0"
     inkscape:current-layer="svg2" />
  <g
     id="g4182"
     transform="translate(-0.27147177,-1.1794716)">
    <path
       style="fill:#fefefe"
       d="m 25.471472,37.067313 c -0.834431,-0.834431 -1.2,-6.128346 -1.2,-17.377555 0,-17.4062726 0.432158,-18.92438573 5.194958,-18.2492089 2.089993,0.2962784 2.35169,0.9622933 2.805042,7.1387957 l 0.5,6.8120322 6.313431,-7.0620322 c 6.748615,-7.54881781 10.113448,-8.9356935 12.203722,-5.0299812 0.947298,1.7700423 0.291286,2.8612456 -5.087812,8.4630184 l -6.175332,6.430967 6.622996,7.400033 c 6.718931,7.507224 7.576103,9.320823 5.422995,11.473931 -2.407338,2.407338 -4.777548,1.037498 -12.198494,-7.05 l -7.570056,-8.25 -0.01573,7.05 c -0.01595,7.152505 -0.992261,9.45 -4.015725,9.45 -0.88,0 -2.14,-0.54 -2.8,-1.2 z m 29.466667,0.533333 c -1.113804,-1.113803 -0.744153,-10.16741 0.445136,-10.902431 1.473975,-0.910967 2.769426,1.307276 2.148998,3.679796 -0.746627,2.855106 0.987269,2.260693 3.239199,-1.110461 1.1,-1.646706 2.45,-2.845413 3,-2.663791 1.491763,0.492611 1.263604,10.909019 -0.25,11.413554 -0.830203,0.276734 -1.259034,-0.702791 -1.276901,-2.916667 l -0.0269,-3.333333 -2.723099,3.259015 c -2.812139,3.365579 -3.421112,3.709639 -4.556432,2.574318 z m 11.533429,-5.004329 c 0.331718,-6.272586 2.779604,-9.011028 2.826805,-3.162337 l 0.0269,3.333333 2.723099,-3.259015 c 1.497704,-1.792458 3.060599,-3.254958 3.473099,-3.25 0.4125,0.005 0.75,2.746515 0.75,6.092348 0,4.349014 -0.348503,5.967166 -1.222417,5.675861 -0.672329,-0.224109 -1.473437,-1.470809 -1.780239,-2.770443 l -0.557822,-2.362972 -2.113681,2.687111 c -3.341886,4.248519 -4.465256,3.436058 -4.125745,-2.983886 z m 17,0 c 0.331718,-6.272586 2.779604,-9.011028 2.826805,-3.162337 l 0.0269,3.333333 2.723099,-3.259015 c 1.497704,-1.792458 3.060599,-3.254958 3.473099,-3.25 0.4125,0.005 0.75,2.746515 0.75,6.092348 0,4.349014 -0.348503,5.967166 -1.222417,5.675861 -0.672329,-0.224109 -1.473437,-1.470809 -1.780239,-2.770443 l -0.557822,-2.362972 -2.113681,2.687111 c -3.341886,4.248519 -4.465256,3.436058 -4.125745,-2.983886 z m 11.799904,-0.245671 c 0,-5.972566 1.589827,-8.36784 2.710251,-4.083333 0.713437,2.728187 4.289747,2.658713 4.289747,-0.08333 0,-1.222223 0.51667,-1.911111 1.25,-1.666667 0.79167,0.263889 1.25,2.372222 1.25,5.75 0,3.377778 -0.45833,5.486111 -1.25,5.75 -0.78495,0.261649 -1.25,-0.544444 -1.25,-2.166667 0,-3.335111 -3.696711,-3.699137 -4.180447,-0.411661 -0.175753,1.19442 -0.882051,2.35692 -1.569551,2.583333 -0.908127,0.299073 -1.25,-1.252119 -1.25,-5.671672 z m 10.999998,4.881484 c 0,-0.569351 0.73431,-2.155882 1.6318,-3.525623 1.51418,-2.310936 1.50949,-2.625593 -0.0651,-4.36554 -2.30433,-2.546254 -0.11268,-3.877766 2.49635,-1.516628 1.76293,1.595426 1.93699,1.604229 1.93699,0.09796 0,-2.092361 1.62576,-2.146134 2.77542,-0.0918 0.79332,1.417584 0.99565,1.417584 2.17214,0 0.71349,-0.859751 1.69219,-1.563186 2.17484,-1.563186 1.51987,0 0.95175,2.859098 -0.75827,3.816076 -1.5004,0.839668 -1.48406,1.172386 0.19743,4.018924 2.19796,3.72084 1.01841,5.592721 -1.53762,2.440133 -1.74909,-2.157305 -1.81954,-2.164897 -2.3203,-0.25 -0.67349,2.575411 -2.70368,2.556538 -2.70368,-0.02513 0,-1.1 -0.34175,-2 -0.75945,-2 -0.4177,0 -1.32152,0.9 -2.00848,2 -1.32672,2.124422 -3.23207,2.693194 -3.23207,0.964817 z m 15,-4.964817 c 0,-4.666667 0.33333,-6 1.5,-6 1.02012,0 1.50861,1.039734 1.5269,3.25 l 0.0269,3.25 2.7231,-3.259015 c 1.49771,-1.792458 3.0606,-3.254958 3.4731,-3.25 0.4125,0.005 0.75,2.746515 0.75,6.092348 0,4.421777 -0.34142,5.969757 -1.25,5.667502 -0.6875,-0.228707 -1.475,-1.618668 -1.75,-3.088802 l -0.5,-2.67297 -2,3.002593 c -3.1654,4.752204 -4.5,3.864945 -4.5,-2.991656 z m 12,0.08333 c 0,-5.972563 1.58983,-8.367837 2.71025,-4.08333 0.71344,2.728187 4.28975,2.658713 4.28975,-0.08333 0,-1.222223 0.51667,-1.911111 1.25,-1.666667 0.79167,0.263889 1.25,2.372222 1.25,5.75 0,3.377778 -0.45833,5.486111 -1.25,5.75 -0.78495,0.261649 -1.25,-0.544444 -1.25,-2.166667 0,-3.335111 -3.69671,-3.699137 -4.18045,-0.411661 -0.17575,1.19442 -0.88205,2.35692 -1.56955,2.583333 -0.90813,0.299073 -1.25,-1.252119 -1.25,-5.671672 z m 11.40553,4.531071 c -0.29244,-0.762078 -0.39082,-3.314604 -0.21862,-5.67228 0.38051,-5.209758 2.80007,-6.722378 2.83999,-1.775457 l 0.0269,3.333333 2.82182,-3.402515 c 1.64657,-1.985423 3.3013,-3.106174 3.9731,-2.690983 1.47568,0.912021 1.50872,10.254553 0.0395,11.162596 -1.51199,0.934459 -2.96254,-1.610255 -2.31949,-4.069098 0.38686,-1.479246 -0.2239,-1.153775 -2.34566,1.25 -3.16877,3.589949 -4.0278,3.922397 -4.81752,1.864404 z m 12,0 c -0.29244,-0.762078 -0.39082,-3.349578 -0.21862,-5.75 0.29519,-4.114822 0.49853,-4.382293 3.5559,-4.677227 2.65557,-0.256172 3.45184,0.145922 4.39703,2.220387 1.35478,2.973437 -0.17298,5.592439 -3.26228,5.592439 -1.21089,0 -1.87756,0.710143 -1.87756,2 0,2.277383 -1.79336,2.702073 -2.59447,0.614404 z m 5.09447,-6.614401 c -0.33992,-0.55 -1.04148,-1 -1.55902,-1 -0.51754,0 -0.94098,0.45 -0.94098,1 0,0.55 0.70156,1 1.55902,1 0.85746,0 1.2809,-0.45 0.94098,-1 z m 4.5,1.916667 c 0,-4.421777 0.34142,-5.969757 1.25,-5.667502 0.6875,0.228707 1.475,1.618668 1.75,3.088802 l 0.5,2.67297 2,-3.002356 c 1.1,-1.651296 2.45,-2.853757 3,-2.672135 1.49176,0.492611 1.2636,10.909019 -0.25,11.413554 -0.83204,0.277347 -1.25371,-0.697891 -1.26109,-2.916667 l -0.0111,-3.333333 -2.56139,3.25 c -1.40876,1.7875 -2.97877,3.25 -3.48891,3.25 -0.51014,0 -0.92752,-2.7375 -0.92752,-6.083333 z m 11.40553,4.697737 c -0.92971,-2.422779 0.0453,-9.94278 1.34447,-10.370017 0.73154,-0.240561 1.25,0.453051 1.25,1.67228 0,2.813618 3.58054,2.795354 4.3173,-0.02202 0.30356,-1.160824 1.141,-1.908546 1.86663,-1.666667 1.99096,0.663651 1.81786,11.27202 -0.18393,11.27202 -0.825,0 -1.6438,-1.0125 -1.81955,-2.25 -0.46799,-3.295149 -4.18045,-3.073136 -4.18045,0.25 0,2.673854 -1.71361,3.4099 -2.59447,1.114404 z m 12,0 c -0.29244,-0.762078 -0.39082,-3.349578 -0.21862,-5.75 0.26676,-3.718547 0.66312,-4.413929 2.67843,-4.699069 3.29323,-0.465951 5.35911,1.701703 2.36741,2.48405 -1.88195,0.492142 -2.23275,1.272567 -2.23275,4.967246 0,4.199388 -1.47803,5.907173 -2.59447,2.997773 z M 68.980321,25.642829 c -1.458204,-1.458205 -0.616453,-2.239123 2.323452,-2.155535 1.721929,0.04896 2.876459,0.560228 2.671672,1.183117 -0.426647,1.297706 -3.978403,1.989139 -4.995124,0.972418 z"
       id="path4186"
       inkscape:connector-curvature="0" />
    <path
       style="fill:#fed26c"
       d="M 25.432438,55.992289 C 24.628393,52.799136 23.608705,51.286366 21.662753,50.399731 19.314545,49.329816 18.517389,49.500569 15.00303,51.826262 L 11.010809,54.468189 7.9279426,51.385322 4.8450763,48.302456 8.1432683,44.899585 C 11.367329,41.5732 11.406322,41.428765 9.8781326,38.473572 8.6660663,36.129694 7.4111836,35.297764 4.2931383,34.770974 0.3266836,34.100845 0.27147177,34.032504 0.27147177,29.792959 c 0,-4.297106 0.001451,-4.298776 4.29212383,-4.942202 C 8.111465,24.318721 9.0457142,23.70376 9.9514211,21.304268 10.894467,18.805854 10.70206,17.893618 8.5704004,14.756598 7.208203,12.751945 6.2461816,11.03427 6.4325749,10.939543 6.6189682,10.844817 7.9477624,9.733875 9.3854509,8.470784 L 11.99943,6.174255 15.643885,8.3245363 c 2.004451,1.1826546 4.31566,1.8927157 5.136021,1.5779137 2.464732,-0.9458062 1.971321,5.915421 -0.55252,7.683188 -2.708396,1.897035 -5.955914,8.399381 -5.955914,11.925236 0,3.565943 2.486325,9.580754 5.118588,12.38267 4.924825,5.242237 15.447911,5.133749 21.816321,-0.224914 l 3.025847,-2.546083 5.019131,4.322383 c 2.760522,2.377311 5.017117,4.547383 5.014655,4.822383 -0.0025,0.275 -1.014741,1.750008 -2.249509,3.277795 l -2.245033,2.777795 -3.827962,-2.616822 c -3.391223,-2.318265 -4.157011,-2.480526 -6.712033,-1.422202 -2.262822,0.937292 -3.059514,2.087356 -3.698543,5.339028 -0.782141,3.979889 -0.976905,4.156357 -4.906393,4.445475 -4.069673,0.299432 -4.097913,0.27727 -5.194103,-4.076093 z"
       id="path4184"
       inkscape:connector-curvature="0" />
  </g>
</svg>
